<?xml version="1.0" encoding="UTF-8"?>
<svg width="24px" height="24px" viewBox="0 0 24 24" version="1.1" xmlns="http://www.w3.org/2000/svg" xmlns:xlink="http://www.w3.org/1999/xlink">
    <defs>
        <rect id="path-1" x="0" y="0" width="24" height="24"></rect>
        <linearGradient x1="50%" y1="0%" x2="50%" y2="100%" id="linearGradient-3">
            <stop stop-color="#666666" offset="0%"></stop>
            <stop stop-color="#4E4E4E" offset="100%"></stop>
        </linearGradient>
    </defs>
    <g id="ic/24/存款" stroke="none" stroke-width="1" fill="none" fill-rule="evenodd">
        <g id="编组">
            <mask id="mask-2" fill="white">
                <use xlink:href="#path-1"></use>
            </mask>
            <g id="矩形"></g>
            <path d="M22,3 C23.1045695,3 24,3.8954305 24,5 L24,19 C24,20.1045695 23.1045695,21 22,21 L2,21 C0.8954305,21 -3.0881846e-16,20.1045695 0,19 L0,5 C-1.3527075e-16,3.8954305 0.8954305,3 2,3 L22,3 Z M22,17 C21.4477153,17 21,17.4477153 21,18 C21,18.5522847 21.4477153,19 22,19 C22.5522847,19 23,18.5522847 23,18 C23,17.4477153 22.5522847,17 22,17 Z M18,17 L14,17 C13.4477153,17 13,17.4477153 13,18 C13,18.5522847 13.4477153,19 14,19 L18,19 C18.5522847,19 19,18.5522847 19,18 C19,17.4477153 18.5522847,17 18,17 Z M22,6 L2,6 C1.44771525,6 1,6.44771525 1,7 L1,9 C1,9.55228475 1.44771525,10 2,10 L22,10 C22.5522847,10 23,9.55228475 23,9 L23,7 C23,6.44771525 22.5522847,6 22,6 Z" id="形状结合" fill="url(#linearGradient-3)" mask="url(#mask-2)"></path>
        </g>
    </g>
</svg>