<?xml version="1.0" encoding="UTF-8"?>
<svg width="24px" height="24px" viewBox="0 0 24 24" version="1.1" xmlns="http://www.w3.org/2000/svg" xmlns:xlink="http://www.w3.org/1999/xlink">
    <defs>
        <rect id="path-1" x="0" y="0" width="24" height="24"></rect>
        <linearGradient x1="50%" y1="0%" x2="50%" y2="100%" id="linearGradient-3">
            <stop stop-color="#666666" offset="0%"></stop>
            <stop stop-color="#4E4E4E" offset="100%"></stop>
        </linearGradient>
    </defs>
    <g id="ic/24/个人资料" stroke="none" stroke-width="1" fill="none" fill-rule="evenodd">
        <mask id="mask-2" fill="white">
            <use xlink:href="#path-1"></use>
        </mask>
        <g id="矩形"></g>
        <path d="M22,3 C23.1045695,3 24,3.8954305 24,5 L24,19 C24,20.1045695 23.1045695,21 22,21 L2,21 C0.8954305,21 -3.0881846e-16,20.1045695 0,19 L0,5 C-1.3527075e-16,3.8954305 0.8954305,3 2,3 L22,3 Z M7.29407812,12.4735352 L5.7299375,12.4735352 C4.81409766,12.4735352 3.89630469,12.8406543 3.20894141,13.4791992 C2.86721289,13.7975 2.59773047,14.1646191 2.40831641,14.570791 C2.20913672,14.9984375 2.10759375,15.4475684 2.10759375,15.9103711 C2.10759375,16.5118164 2.59577734,17 3.19722266,17 L9.82679297,17 C10.4282383,17 10.9164219,16.5118164 10.9164219,15.9103711 C10.9144687,15.4475684 10.8148789,14.9964844 10.6156992,14.570791 C10.4262852,14.1646191 10.1568125,13.7975 9.81507422,13.4791992 C9.12771094,12.8406543 8.20796484,12.4735352 7.29407812,12.4735352 Z M21.25,12 L16.75,12 C16.3357864,12 16,12.3357864 16,12.75 C16,13.1642136 16.3357864,13.5 16.75,13.5 L21.25,13.5 C21.6642136,13.5 22,13.1642136 22,12.75 C22,12.3357864 21.6642136,12 21.25,12 Z M6.51103125,7 C5.04842383,7 3.85725195,8.19117188 3.85725195,9.6537793 C3.85725195,11.1163867 5.04842383,12.3056055 6.51103125,12.3056055 C7.97362891,12.3056055 9.16481055,11.1144336 9.16481055,9.65182617 C9.16481055,8.18921875 7.97363867,7 6.51103125,7 Z M21.25,9.5 L15.75,9.5 C15.3357864,9.5 15,9.83578644 15,10.25 C15,10.6642136 15.3357864,11 15.75,11 L21.25,11 C21.6642136,11 22,10.6642136 22,10.25 C22,9.83578644 21.6642136,9.5 21.25,9.5 Z M21.25,7 L14.75,7 C14.3357864,7 14,7.33578644 14,7.75 C14,8.16421356 14.3357864,8.5 14.75,8.5 L21.25,8.5 C21.6642136,8.5 22,8.16421356 22,7.75 C22,7.33578644 21.6642136,7 21.25,7 Z" id="形状结合" fill="url(#linearGradient-3)" mask="url(#mask-2)"></path>
    </g>
</svg>