<?xml version="1.0" encoding="UTF-8"?>
<svg width="24px" height="24px" viewBox="0 0 24 24" version="1.1" xmlns="http://www.w3.org/2000/svg" xmlns:xlink="http://www.w3.org/1999/xlink">
    <defs>
        <rect id="path-1" x="0" y="0" width="24" height="24"></rect>
    </defs>
    <g id="ic/24/合营" stroke="none" stroke-width="1" fill="none" fill-rule="evenodd">
        <g id="编组">
            <mask id="mask-2" fill="white">
                <use xlink:href="#path-1"></use>
            </mask>
            <g id="蒙版"></g>
            <path d="M1.00728879,5.39852424 C1.00728879,7.8277621 2.97657518,9.79704848 5.40581304,9.79704848 C7.8350509,9.79704848 9.80433728,7.8277621 9.80433728,5.39852424 C9.80433728,2.96928638 7.8350509,1 5.40581304,1 C2.97657518,1 1.00728879,2.96928638 1.00728879,5.39852424 L1.00728879,5.39852424 Z M14.2028615,5.39852424 C14.2028615,7.8277621 16.1721479,9.79704848 18.6013858,9.79704848 C21.0306236,9.79704848 22.99991,7.8277621 22.99991,5.39852424 C22.99991,2.96928638 21.0306236,1 18.6013858,1 C16.1721479,1 14.2028615,2.96928638 14.2028615,5.39852424 L14.2028615,5.39852424 Z M18.6013858,10.8966795 C16.3567145,10.8817926 14.460955,12.5595398 14.2028615,14.7893735 L12.0035994,16.9886356 L9.80433728,14.7893735 C9.7139794,13.2179321 8.79213129,11.8140658 7.38604422,11.1065973 C5.97995714,10.3991289 4.30324917,10.4955396 2.98751998,11.3595125 C1.67179078,12.2234854 0.916930916,13.7237624 1.00728879,15.2952038 L1.00728879,22.9926212 L9.80433728,22.9926212 L9.80433728,17.9563109 L11.2228613,19.374835 C11.6517586,19.8011879 12.3444438,19.8011879 12.7733411,19.374835 L14.2028615,17.9563109 L14.2028615,22.9926212 L22.99991,22.9926212 L22.99991,15.2952038 C22.99991,12.8659659 21.0306236,10.8966795 18.6013858,10.8966795 Z" id="形状" fill="#4E4E4E" fill-rule="nonzero" mask="url(#mask-2)"></path>
        </g>
    </g>
</svg>