<?xml version="1.0" encoding="UTF-8"?>
<svg width="24px" height="24px" viewBox="0 0 24 24" version="1.1" xmlns="http://www.w3.org/2000/svg" xmlns:xlink="http://www.w3.org/1999/xlink">
    <defs>
        <rect id="path-1" x="-1" y="0" width="24" height="24"></rect>
    </defs>
    <g id="ic/24/交易记录备份-2" stroke="none" stroke-width="1" fill="none" fill-rule="evenodd">
        <mask id="mask-2" fill="white">
            <use xlink:href="#path-1"></use>
        </mask>
        <g id="矩形"></g>
        <path d="M17,14 L21,14 C22.1045695,14 23,14.8954305 23,16 L23,24 L23,24 L17,24 L17,14 Z" id="矩形" fill="#575757" opacity="0.5" mask="url(#mask-2)"></path>
        <path d="M17,0 C18.1045695,-2.02906125e-16 19,0.8954305 19,2 L19,22 C19,23.1045695 18.1045695,24 17,24 L3,24 C1.8954305,24 1,23.1045695 1,22 L1,2 C1,0.8954305 1.8954305,-2.41183085e-16 3,0 L17,0 Z M16,15 L4,15 C3.44771525,15 3,15.4477153 3,16 C3,16.5522847 3.44771525,17 4,17 L16,17 C16.5522847,17 17,16.5522847 17,16 C17,15.4477153 16.5522847,15 16,15 Z M13,10 L4,10 C3.44771525,10 3,10.4477153 3,11 C3,11.5522847 3.44771525,12 4,12 L13,12 C13.5522847,12 14,11.5522847 14,11 C14,10.4477153 13.5522847,10 13,10 Z M11,5 L4,5 C3.44771525,5 3,5.44771525 3,6 C3,6.55228475 3.44771525,7 4,7 L11,7 C11.5522847,7 12,6.55228475 12,6 C12,5.44771525 11.5522847,5 11,5 Z" id="形状结合" fill="#575757" mask="url(#mask-2)"></path>
    </g>
</svg>