<?xml version="1.0" encoding="UTF-8"?>
<svg width="24px" height="24px" viewBox="0 0 24 24" version="1.1" xmlns="http://www.w3.org/2000/svg" xmlns:xlink="http://www.w3.org/1999/xlink">
    <defs>
        <rect id="path-1" x="0" y="0" width="24" height="24"></rect>
    </defs>
    <g id="ic/24/钱包备份" stroke="none" stroke-width="1" fill="none" fill-rule="evenodd">
        <mask id="mask-2" fill="white">
            <use xlink:href="#path-1"></use>
        </mask>
        <g id="矩形"></g>
        <g id="存钱罐" mask="url(#mask-2)" fill="#575757" fill-rule="nonzero">
            <rect id="矩形" opacity="0" x="0" y="0" width="24" height="24"></rect>
            <path d="M22.5351563,12.4664062 L21.7335938,12.4664062 C21.3046875,9.8765625 19.6570313,7.65234375 17.3390625,6.28359375 C16.4671875,7.46484375 15.0703125,8.23359375 13.4929688,8.23359375 C11.3859375,8.23359375 9.5953125,6.8625 8.96015625,4.96875 L6.55546875,3.14765625 C6.2578125,2.92265625 5.9859375,3.0515625 5.94375,3.43359375 L5.5734375,6.96796875 C4.31484375,7.93828125 3.3328125,9.18984375 2.7328125,10.6171875 L1.14375,10.6171875 C0.515625,10.6125 0,11.128125 0,11.7585937 L0,15.2367187 C0,15.8671875 0.515625,16.3828125 1.14375,16.3828125 L2.49609375,16.3828125 C3.16171875,18.403125 4.5890625,20.1257812 6.478125,21.271875 L6.478125,23.4867187 C6.478125,23.7703125 6.71015625,24 6.99140625,24 L9.50859375,24 C9.78984375,24 10.021875,23.7679687 10.021875,23.4867187 L10.021875,22.6054687 C10.65,22.7203125 11.3015625,22.78125 11.9671875,22.78125 C12.6328125,22.78125 13.284375,22.7203125 13.9125,22.6054687 L13.9125,23.4867187 C13.9125,23.7703125 14.1445313,24 14.4257812,24 L16.9429687,24 C17.2242188,24 17.45625,23.7679687 17.45625,23.4867187 L17.45625,21.271875 C19.8351563,19.828125 21.4828125,17.475 21.7992188,14.7585937 L22.5351563,14.7585937 C23.1679688,14.7585937 23.6789063,14.2453125 23.6789063,13.6125 C23.6789063,12.9796875 23.1679688,12.4664062 22.5351563,12.4664062 Z M6.66328125,11.4609375 C5.96484375,11.4609375 5.38359375,10.9757812 5.22421875,10.3289062 C5.4140625,10.5960937 5.7234375,10.7695312 6.075,10.7695312 C6.65390625,10.7695312 7.12265625,10.3007812 7.12265625,9.721875 C7.12265625,9.14296875 6.65390625,8.67421875 6.075,8.67421875 C6.02578125,8.67421875 5.9765625,8.68359375 5.92734375,8.68828125 C6.1453125,8.5640625 6.39375,8.48671875 6.66328125,8.48671875 C7.48359375,8.48671875 8.14922492,9.15234375 8.14922492,9.975 C8.1515625,10.7929687 7.4859375,11.4609375 6.66328125,11.4609375 L6.66328125,11.4609375 Z" id="形状"></path>
            <path d="M13.5011893,0 C11.5698267,0 10,1.56929348 10,3.5 C10,5.43070652 11.5722052,7 13.5011893,7 C15.4301733,7 17,5.43070652 17,3.5 C17,1.56929348 15.4301733,0 13.5011893,0 Z M13.8284585,5.37343984 L13.8284585,6 L13.112253,6 L13.112253,5.42835746 C12.6711462,5.40339491 12.2371542,5.28607089 12,5.16625062 L12.201581,4.31752371 C12.4837945,4.45232152 12.8750988,4.58711932 13.3090909,4.58711932 C13.629249,4.58711932 13.856917,4.50224663 13.856917,4.30254618 C13.856917,4.11283075 13.6671937,3.99550674 13.2023715,3.85571643 C12.516996,3.64103844 12.03083,3.32900649 12.03083,2.70743884 C12.03083,2.15077384 12.4268775,1.7089366 13.1454545,1.56914628 L13.1454545,1 L13.856917,1 L13.856917,1.52171742 C14.2909091,1.5341987 14.5873518,1.61907139 14.8126482,1.71642536 L14.6110672,2.53270095 C14.4403162,2.46530205 14.1320158,2.32551173 13.6624506,2.32551173 C13.2901186,2.32551173 13.1762846,2.45282077 13.1762846,2.59011483 C13.1762846,2.74238642 13.3897233,2.85971043 13.9185771,3.03694458 C14.7106719,3.29405891 15,3.6435347 15,4.20269596 C15,4.77433849 14.5849802,5.23864204 13.8284585,5.37343984 Z" id="形状"></path>
        </g>
    </g>
</svg>