<?xml version="1.0" encoding="UTF-8"?>
<svg width="24px" height="24px" viewBox="0 0 24 24" version="1.1" xmlns="http://www.w3.org/2000/svg" xmlns:xlink="http://www.w3.org/1999/xlink">
    <defs>
        <rect id="path-1" x="0" y="0" width="24" height="24"></rect>
        <linearGradient x1="50%" y1="0%" x2="50%" y2="100%" id="linearGradient-3">
            <stop stop-color="#666666" offset="0%"></stop>
            <stop stop-color="#4E4E4E" offset="100%"></stop>
        </linearGradient>
    </defs>
    <g id="ic/24/资金明细" stroke="none" stroke-width="1" fill="none" fill-rule="evenodd">
        <mask id="mask-2" fill="white">
            <use xlink:href="#path-1"></use>
        </mask>
        <g id="矩形"></g>
        <path d="M20,0 C21.1045695,-2.02906125e-16 22,0.8954305 22,2 L22.0011092,16.5357707 C21.4125119,16.1950335 20.7290322,16 20,16 C17.790861,16 16,17.790861 16,20 C16,22.209139 17.790861,24 20,24 L4,24 C2.8954305,24 2,23.1045695 2,22 L2,2 C2,0.8954305 2.8954305,-2.41183085e-16 4,0 L20,0 Z M17,15 L5,15 C4.44771525,15 4,15.4477153 4,16 C4,16.5522847 4.44771525,17 5,17 L17,17 C17.5522847,17 18,16.5522847 18,16 C18,15.4477153 17.5522847,15 17,15 Z M14,10 L5,10 C4.44771525,10 4,10.4477153 4,11 C4,11.5522847 4.44771525,12 5,12 L14,12 C14.5522847,12 15,11.5522847 15,11 C15,10.4477153 14.5522847,10 14,10 Z M12,5 L5,5 C4.44771525,5 4,5.44771525 4,6 C4,6.55228475 4.44771525,7 5,7 L12,7 C12.5522847,7 13,6.55228475 13,6 C13,5.44771525 12.5522847,5 12,5 Z" id="形状结合" fill="url(#linearGradient-3)" mask="url(#mask-2)"></path>
        <path d="M20,17 C21.6568542,17 23,18.3431458 23,20 C23,21.6568542 21.6568542,23 20,23 C18.3431458,23 17,21.6568542 17,20 C17,18.3431458 18.3431458,17 20,17 Z M20,18.7071068 L18.5857864,20.1213203 L20,21.5355339 L21.4142136,20.1213203 L20,18.7071068 Z" id="形状结合" fill="#4E4E4E" mask="url(#mask-2)"></path>
    </g>
</svg>