<?xml version="1.0" encoding="UTF-8"?>
<svg width="24px" height="24px" viewBox="0 0 24 24" version="1.1" xmlns="http://www.w3.org/2000/svg" xmlns:xlink="http://www.w3.org/1999/xlink">
    <defs>
        <rect id="path-1" x="0" y="0" width="24" height="24"></rect>
        <linearGradient x1="50%" y1="0%" x2="50%" y2="100%" id="linearGradient-3">
            <stop stop-color="#666666" offset="0%"></stop>
            <stop stop-color="#4E4E4E" offset="100%"></stop>
        </linearGradient>
    </defs>
    <g id="ic/24/消息中心" stroke="none" stroke-width="1" fill="none" fill-rule="evenodd">
        <mask id="mask-2" fill="white">
            <use xlink:href="#path-1"></use>
        </mask>
        <g id="矩形"></g>
        <path d="M14.2408165,2.13326056 C14.2408165,0.957522049 13.244402,0 12.0152769,0 C10.7886481,0 9.7896837,0.955133209 9.7896837,2.13326056 C9.7896837,2.25331988 9.80004429,2.37107088 9.82001391,2.48576202 C6.74678524,3.51253358 4.2255664,6.66569443 4.2255664,10.3962566 L4.2255664,13.3332677 C4.2255664,13.3332677 4.2255664,17.5631242 3.14148954,17.6000036 C2.49510713,17.6000036 2,18.0775568 2,18.6666607 C2,19.2598445 2.49808647,19.7332641 3.11260873,19.7332641 L20.9179452,19.7332641 C21.5354199,19.7332641 22.030527,19.2557378 22.030527,18.6666875 C22.030527,18.0733964 21.5324406,17.6000036 20.917972,17.6000036 C19.8049875,17.6000036 19.8049875,13.3630611 19.8049875,13.3630611 L19.8049875,10.3966055 C19.8049875,6.66126568 17.4476055,3.50681647 14.2111036,2.48315846 C14.2309211,2.36758057 14.2408613,2.25052513 14.2408165,2.13326056 Z M15.3536668,20.7981498 C15.3503385,22.5670989 13.8697411,24 12.0152501,24 C10.1735085,24 8.68013483,22.5730307 8.67680656,20.7981498 L15.3536668,20.7981498 L15.3536668,20.7981498 Z" id="形状" fill="url(#linearGradient-3)" fill-rule="nonzero" mask="url(#mask-2)"></path>
    </g>
</svg>