<?xml version="1.0" encoding="UTF-8"?>
<svg width="24px" height="24px" viewBox="0 0 24 24" version="1.1" xmlns="http://www.w3.org/2000/svg" xmlns:xlink="http://www.w3.org/1999/xlink">
    <defs>
        <rect id="path-1" x="0" y="0" width="24" height="24"></rect>
    </defs>
    <g id="ic/24/优惠" stroke="none" stroke-width="1" fill="none" fill-rule="evenodd">
        <g id="蒙版">
            <mask id="mask-2" fill="white">
                <use xlink:href="#path-1"></use>
            </mask>
            <g></g>
            <path d="M2,5.5 L22,5.5 C22.5522847,5.5 23,5.94771525 23,6.5 L23,9.5 C23,10.0522847 22.5522847,10.5 22,10.5 L2,10.5 C1.44771525,10.5 1,10.0522847 1,9.5 L1,6.5 C1,5.94771525 1.44771525,5.5 2,5.5 Z M3,11.5 L21,11.5 C21.5522847,11.5 22,11.9477153 22,12.5 L22,21.5 C22,22.0522847 21.5522847,22.5 21,22.5 L3,22.5 C2.44771525,22.5 2,22.0522847 2,21.5 L2,12.5 C2,11.9477153 2.44771525,11.5 3,11.5 Z M4.55842876,4.5 C5.13222638,4.5 7.15626898,4.5 10.6305565,4.5 C11.0845989,4.32167187 11.1201311,4.10216173 10.7371531,3.84146957 C8.32479907,2.19938595 5.0653522,1.5 4.55842876,1.5 C3.69773232,1.5 3,2.17157288 3,3 C3,3.82842712 3.69773232,4.5 4.55842876,4.5 Z M18.4415712,4.5 C17.8677736,4.5 15.843731,4.5 12.3694435,4.5 C11.9154011,4.32167187 11.8798689,4.10216173 12.2628469,3.84146957 C14.6752009,2.19938595 17.9346478,1.5 18.4415712,1.5 C19.3022677,1.5 20,2.17157288 20,3 C20,3.82842712 19.3022677,4.5 18.4415712,4.5 Z" fill="#4E4E4E" mask="url(#mask-2)"></path>
        </g>
    </g>
</svg>