<?xml version="1.0" encoding="UTF-8"?>
<svg width="24px" height="24px" viewBox="0 0 24 24" version="1.1" xmlns="http://www.w3.org/2000/svg" xmlns:xlink="http://www.w3.org/1999/xlink">
    <defs>
        <rect id="path-1" x="0" y="0" width="24" height="24"></rect>
    </defs>
    <g id="ic/24/意见反馈备份" stroke="none" stroke-width="1" fill="none" fill-rule="evenodd">
        <mask id="mask-2" fill="white">
            <use xlink:href="#path-1"></use>
        </mask>
        <g id="矩形"></g>
        <path d="M20,0 C21.1045695,-2.02906125e-16 22,0.8954305 22,2 L22,15.7867517 L14.1165032,24 L4,24 C2.8954305,24 2,23.1045695 2,22 L2,2 C2,0.8954305 2.8954305,-2.41183085e-16 4,0 L20,0 Z M17,15 L5,15 C4.44771525,15 4,15.4477153 4,16 C4,16.5522847 4.44771525,17 5,17 L17,17 C17.5522847,17 18,16.5522847 18,16 C18,15.4477153 17.5522847,15 17,15 Z M14,10 L5,10 C4.44771525,10 4,10.4477153 4,11 C4,11.5522847 4.44771525,12 5,12 L14,12 C14.5522847,12 15,11.5522847 15,11 C15,10.4477153 14.5522847,10 14,10 Z M12,5 L5,5 C4.44771525,5 4,5.44771525 4,6 C4,6.55228475 4.44771525,7 5,7 L12,7 C12.5522847,7 13,6.55228475 13,6 C13,5.44771525 12.5522847,5 12,5 Z" id="形状结合" fill="#575757" mask="url(#mask-2)"></path>
        <path d="M19.9312385,16.8375523 C20.4835233,16.8375523 20.9312385,17.2852676 20.9312385,17.8375523 L20.9312385,22.8375523 L20.9312385,22.8375523 L19.9373781,24.4209349 L18.9312385,22.8375523 L18.9312385,17.8375523 C18.9312385,17.2852676 19.3789538,16.8375523 19.9312385,16.8375523 Z" id="矩形" fill="#575757" mask="url(#mask-2)" transform="translate(19.931239, 20.629244) rotate(44.000000) translate(-19.931239, -20.629244) "></path>
    </g>
</svg>