<?xml version="1.0" encoding="UTF-8"?>
<svg width="24px" height="24px" viewBox="0 0 24 24" version="1.1" xmlns="http://www.w3.org/2000/svg" xmlns:xlink="http://www.w3.org/1999/xlink">
    <defs>
        <rect id="path-1" x="0" y="0" width="24" height="24"></rect>
        <linearGradient x1="50%" y1="0%" x2="50%" y2="100%" id="linearGradient-3">
            <stop stop-color="#666666" offset="0%"></stop>
            <stop stop-color="#4E4E4E" offset="100%"></stop>
        </linearGradient>
    </defs>
    <g id="ic/24/邀请好友" stroke="none" stroke-width="1" fill="none" fill-rule="evenodd">
        <mask id="mask-2" fill="white">
            <use xlink:href="#path-1"></use>
        </mask>
        <g id="矩形"></g>
        <path d="M23.8461538,13.2307692 C23.9477123,13.4745096 24,13.735948 24,14 L24,22 C24,23.1045695 23.1045695,24 22,24 L2,24 C0.8954305,24 -5.30863065e-16,23.1045695 0,22 L0,14 C7.52907669e-16,12.8954305 0.8954305,12 2,12 C2.26405204,12 2.52549043,12.0522877 2.76923077,12.1538462 L12,16 L21.2307692,12.1538462 C22.2503718,11.7290117 23.4213194,12.2111666 23.8461538,13.2307692 Z M19,0 C20.1045695,-2.02906125e-16 21,0.8954305 21,2 L21,11.544 L12,15.2947329 L3,11.544 L3,2 C3,0.8954305 3.8954305,-1.91384796e-17 5,0 L19,0 Z M16,8 L9,8 C8.44771525,8 8,8.44771525 8,9 C8,9.55228475 8.44771525,10 9,10 L16,10 C16.5522847,10 17,9.55228475 17,9 C17,8.44771525 16.5522847,8 16,8 Z M17,4 L8,4 C7.44771525,4 7,4.44771525 7,5 C7,5.55228475 7.44771525,6 8,6 L17,6 C17.5522847,6 18,5.55228475 18,5 C18,4.44771525 17.5522847,4 17,4 Z" id="形状结合" fill="url(#linearGradient-3)" mask="url(#mask-2)"></path>
    </g>
</svg>