<?xml version="1.0" encoding="UTF-8"?>
<svg width="24px" height="24px" viewBox="0 0 24 24" version="1.1" xmlns="http://www.w3.org/2000/svg" xmlns:xlink="http://www.w3.org/1999/xlink">
    <defs>
        <rect id="path-1" x="0" y="0" width="24" height="24"></rect>
    </defs>
    <g id="ic/24/语言" stroke="none" stroke-width="1" fill="none" fill-rule="evenodd">
        <mask id="mask-2" fill="white">
            <use xlink:href="#path-1"></use>
        </mask>
        <g id="蒙版"></g>
        <g id="语言" mask="url(#mask-2)" fill-rule="nonzero">
            <rect id="矩形" fill="#000000" opacity="0" x="0" y="0" width="24" height="24"></rect>
            <path d="M12,0 C18.627417,0 24,5.372583 24,12 C24,18.627417 18.627417,24 12,24 C5.372583,24 0,18.627417 0,12 C0,5.372583 5.372583,0 12,0 Z M3.0645,9.597 C2.9535,9.708 2.9535,9.708 3.0645,9.816 C2.769,10.2945 2.1345,10.353 1.68,10.065 C1.15649332,12.8601914 1.78882037,15.7481964 3.43244825,18.0688949 C5.07607614,20.3895935 7.59050347,21.9446065 10.401,22.3785 L10.392,22.371 L10.212,22.281 C10.5495,22.173 10.9965,22.173 11.3295,22.173 C11.2185,21.516 11.2185,20.9715 11.2185,20.313 C11.2185,20.313 8.6505,18.456 8.6505,17.361 C8.6505,16.266 8.985,15.7215 8.6505,15.7215 C8.091,15.7215 7.4205,16.1595 7.3095,15.7215 C7.086,15.0645 6.639,14.5185 5.9685,14.301 C4.431,14.301 4.2105,12.645 4.1835,10.938 L4.182,10.473 C4.182,9.924 3.5115,9.924 3.0645,9.597 L3.0645,9.597 Z M12.6345,1.5195 L12.7635,1.554 C14.4645,2.073 14.514,3.789 13.1175,3.579 C13.1175,4.1235 13.1175,4.779 13.0065,5.436 C12.894,6.531 11.553,6.204 11.2185,6.75 C10.8855,7.2975 11.889,7.8435 13.0065,7.6245 C13.341,7.6245 13.0065,7.2945 13.2315,7.1865 C13.677,7.0785 14.235,7.0785 14.682,7.1865 C14.2269215,8.17003367 13.7041668,9.12081563 13.1175,10.032 C12.8925,10.359 13.1175,11.016 13.1175,11.4525 C13.1175,14.736 11.553,10.6875 11.3295,10.797 C11.106,11.016 10.1025,10.578 9.6555,10.578 C9.2085,10.578 9.4305,11.4525 8.985,11.4525 C8.091,11.4525 8.3145,11.2335 8.3145,11.5605 C8.3145,11.9985 8.424,12.8745 8.424,14.187 C8.424,14.625 9.318,14.079 9.876,14.079 C10.5465,14.079 10.9935,14.625 11.4405,14.844 C12.2205,15.174 13.0035,16.2675 13.5615,16.374 C14.1195,16.4865 13.6725,17.3595 14.3415,17.25 C14.676,17.142 15.123,17.361 15.3465,17.688 C15.6825,18.126 15.459,18.675 15.012,19.002 C14.343,19.6575 14.1195,20.4225 13.785,21.954 C13.968,21.894 14.184,22.047 14.3625,22.2315 C17.776483,21.4414108 20.5725313,19.0025323 21.819,15.7275 C20.97,16.629 19.989,16.698 20.28,15.9345 C19.944,15.279 19.497,14.73 18.939,14.184 C17.9325,13.3095 17.0385,11.667 20.1675,9.369 C19.683,8.136 20.883,6.984 21.645,7.848 C20.0778123,4.20644047 16.5931975,1.75804312 12.636,1.518 L12.6345,1.5195 Z" id="形状" fill="#4E4E4E"></path>
        </g>
    </g>
</svg>