<?xml version="1.0" encoding="UTF-8"?>
<svg width="24px" height="24px" viewBox="0 0 24 24" version="1.1" xmlns="http://www.w3.org/2000/svg" xmlns:xlink="http://www.w3.org/1999/xlink">
    <defs>
        <rect id="path-1" x="0" y="0" width="24" height="24"></rect>
        <rect id="path-3" x="0" y="0" width="24" height="24"></rect>
    </defs>
    <g id="ic/24/转账备份" stroke="none" stroke-width="1" fill="none" fill-rule="evenodd">
        <mask id="mask-2" fill="white">
            <use xlink:href="#path-1"></use>
        </mask>
        <g id="矩形"></g>
        <g id="编组" mask="url(#mask-2)">
            <mask id="mask-4" fill="white">
                <use xlink:href="#path-3"></use>
            </mask>
            <g id="矩形"></g>
            <path d="M22,3 C23.1045695,3 24,3.8954305 24,5 L24,19 C24,20.1045695 23.1045695,21 22,21 L2,21 C0.8954305,21 -3.0881846e-16,20.1045695 0,19 L0,5 C-1.3527075e-16,3.8954305 0.8954305,3 2,3 L22,3 Z M12,7 C9.23857625,7 7,9.23857625 7,12 C7,14.7614237 9.23857625,17 12,17 C14.7614237,17 17,14.7614237 17,12 C17,9.23857625 14.7614237,7 12,7 Z" id="形状结合" fill="#5A5959" mask="url(#mask-4)"></path>
        </g>
        <path d="M12.8846271,9.01541137 L12.8846271,8.21639976 C12.8846271,7.95303027 12.6793006,7.84589975 12.5319961,7.95303027 L10.3313533,9.48410738 C10.2696574,9.52556646 10.232651,9.59502018 10.232651,9.66935215 C10.232651,9.74368413 10.2696574,9.81313784 10.3313533,9.85459693 L12.5319961,11.3901413 C12.6015173,11.4358131 12.6904135,11.4399316 12.7638598,11.4008835 C12.837306,11.3618353 12.8836081,11.2858378 12.8846271,11.2026629 L12.8846271,10.6759344 C12.8844269,10.6135138 12.9103762,10.5538619 12.9561786,10.511453 C13.0019809,10.4690441 13.06345,10.4477542 13.1256708,10.4527493 C14.3479656,10.568713 15.3577787,11.4561217 15.6298466,12.6533817 C15.6748608,12.4541776 15.6973209,12.2505417 15.6968119,12.0463157 C15.6880481,10.5766207 14.5590422,9.35659396 13.0944313,9.23413966 C12.9771297,9.22934984 12.8845293,9.13281072 12.8846271,9.01541137 Z M11.5454956,14.9031225 L11.5454956,15.7958838 C11.5461909,15.8781104 11.5920441,15.953294 11.6648311,15.9915531 C11.737618,16.0298121 11.8255466,16.0249484 11.8936698,15.9788949 L14.1032367,14.4388937 C14.1612143,14.3969206 14.1955433,14.3296871 14.1955433,14.258111 C14.1955433,14.1865349 14.1612143,14.1193014 14.1032367,14.0773282 L11.8936698,12.5373271 C11.826886,12.4882885 11.7381265,12.4811944 11.6644014,12.5190028 C11.5906764,12.5568113 11.5446429,12.6330313 11.5454956,12.7158814 L11.5454956,13.251534 C11.5469678,13.3135437 11.5220429,13.3732626 11.4769247,13.4158269 C11.4318065,13.4583912 11.3707382,13.479798 11.3089192,13.4747191 C10.0849159,13.3605834 9.07286404,12.4727868 8.80027618,11.2740763 C8.75526121,11.4732837 8.7328011,11.6769232 8.73331083,11.8811527 C8.75164238,13.3422128 9.87925283,14.5491218 11.3357019,14.6665461 C11.457925,14.6760538 11.5506706,14.7806394 11.5454956,14.9031225 Z" id="形状" fill="#575757" fill-rule="nonzero" mask="url(#mask-2)"></path>
    </g>
</svg>