<svg id="圖層_1" data-name="圖層 1" xmlns="http://www.w3.org/2000/svg" viewBox="0 0 20 15"><defs><style>.cls-1{fill:#0f295c;}.cls-2{fill:#f2f2f0;}.cls-3{fill:#af3530;}</style></defs><title>UK</title><rect class="cls-1" width="20" height="15"/><polygon class="cls-2" points="15.65 10.03 20 10.03 20 5.14 15.6 5.14 20 1.88 20 0 18.08 0 11.74 4.7 11.74 0 8.41 0 8.41 4.66 2.11 0 0 0 0 1.74 4.58 5.14 0 5.14 0 10.03 4.54 10.03 0 13.39 0 15 2.29 15 8.41 10.47 8.41 15 11.74 15 11.74 10.44 17.9 15 20 15 20 13.25 15.65 10.03"/><polygon class="cls-3" points="20 6.1 11.06 6.1 11.06 0 9.06 0 9.06 6.1 0 6.1 0 9.04 9.06 9.04 9.06 15 11.06 15 11.06 9.04 20 9.04 20 6.1"/><polygon class="cls-3" points="20 13.88 14.8 10.03 13.4 10.03 20 14.91 20 13.88"/><polygon class="cls-3" points="6.8 5.14 0 0.1 0 1.14 5.4 5.14 6.8 5.14"/><polygon class="cls-3" points="1.49 15 8.2 10.03 6.8 10.03 0.09 15 1.49 15"/><polygon class="cls-3" points="20 0 18.91 0 11.97 5.14 13.38 5.14 20 0.23 20 0"/></svg>