<svg id="圖層_1" data-name="圖層 1" xmlns="http://www.w3.org/2000/svg" viewBox="0 0 20 15"><defs><style>.cls-1{fill:#de2910;}.cls-2{fill:#ffde00;}</style></defs><title>CH</title><rect class="cls-1" width="20" height="15"/><polygon class="cls-2" points="3.45 1.47 3.96 3.05 5.63 3.05 4.28 4.03 4.8 5.62 3.45 4.64 2.1 5.62 2.61 4.03 1.26 3.05 2.93 3.05 3.45 1.47"/><polygon class="cls-2" points="7.46 0.87 7.42 1.38 7.89 1.58 7.39 1.7 7.35 2.21 7.08 1.77 6.58 1.89 6.92 1.5 6.65 1.06 7.13 1.26 7.46 0.87"/><polygon class="cls-2" points="9.2 2.53 8.96 2.98 9.31 3.36 8.81 3.26 8.56 3.72 8.49 3.21 7.99 3.11 8.45 2.89 8.38 2.38 8.74 2.75 9.2 2.53"/><polygon class="cls-2" points="8.68 4.58 8.85 5.06 9.37 5.05 8.96 5.36 9.13 5.85 8.7 5.55 8.29 5.87 8.44 5.37 8.02 5.08 8.53 5.07 8.68 4.58"/><polygon class="cls-2" points="7.43 6.12 7.41 6.63 7.89 6.81 7.39 6.95 7.37 7.46 7.09 7.03 6.59 7.17 6.91 6.77 6.63 6.34 7.11 6.52 7.43 6.12"/></svg>